# xmcd CD database file
#
# Track frame offsets:
#	150
#	10580
#	24993
#	35684
#	47499
#	59704
#	72803
#	85036
#	100492
#	111050
#	120503
#	132022
#	144331
#	155150
#	169025
#	179373
#	195328
#	206354
#	219057
#	227972
#	241143
#	254327
#	266189
#	276555
#	289078
#	303164
#	311433
#	320558
#
# Disc length: 4442 seconds
#
# Revision: 0
# Processed by: cddbd v1.5.2PL0 Copyright (c) Steve Scherf et al.
# Submitted via: CDex 1.70beta2
#
DISCID=8911581c
DTITLE=Dolly Parton and Porter Wagoner - Just between you and me CD 4
DYEAR=2014
DGENRE=Country
TTITLE0=Anyplace you want to go
TTITLE1=Somewhere along the way
TTITLE2=The fog has lifted
TTITLE3=Looking down 
TTITLE4=If you go, I'll follow you
TTITLE5=Waldo the weirdo
TTITLE6=I've been this way too long
TTITLE7=Lost forever in you kiss
TTITLE8=Sounds of nature
TTITLE9=Through thick and thin
TTITLE10=We found it
TTITLE11=Poor folks town
TTITLE12=Together you and I
TTITLE13=Christina
TTITLE14=Together always
TTITLE15=Ten four-over and out
TTITLE16=There's singing on the mountain
TTITLE17=Say forever you'll be mine
TTITLE18=That's when love will mean most
TTITLE19=Love hve mercy on us
TTITLE20=Sweet Rachel Ann
TTITLE21=Satan's river
TTITLE22=I am always waiting
TTITLE23=I've been married (just as long as you have)
TTITLE24=Little David's harp
TTITLE25=Between us
TTITLE26=Love city
TTITLE27=In the presence of you
EXTD=YEAR: 2014
EXTT0=
EXTT1=
EXTT2=
EXTT3=
EXTT4=
EXTT5=
EXTT6=
EXTT7=
EXTT8=
EXTT9=
EXTT10=
EXTT11=
EXTT12=
EXTT13=
EXTT14=
EXTT15=
EXTT16=
EXTT17=
EXTT18=
EXTT19=
EXTT20=
EXTT21=
EXTT22=
EXTT23=
EXTT24=
EXTT25=
EXTT26=
EXTT27=
PLAYORDER=
